<?xml version="1.0" encoding="UTF-8"?>
<svg id="Layer_2" xmlns="http://www.w3.org/2000/svg" version="1.1" viewBox="0 0 194.61 421.31">
  <!-- Generator: Adobe Illustrator 29.5.1, SVG Export Plug-In . SVG Version: 2.1.0 Build 141)  -->
  <g id="body-lower">
    <path id="center" d="M54.24,104.82h85.66c4.38,0,7.93,4.09,7.93,9.13v132.46c0,7.67-5.4,13.89-12.06,13.89H58.38c-6.66,0-12.06-6.22-12.06-13.89V113.96c0-5.04,3.55-9.13,7.93-9.13Z" fill="#007dcd" stroke="#007dcd" stroke-miterlimit="10" stroke-width="3"/>
    <path id="bottom" d="M164.55,298.88H30.06c-6.82,0-10.23-9.35-5.41-14.83l14.72-16.7c3.98-4.52,9.38-7.06,15.01-7.06h85.56c5.56,0,10.89,2.47,14.86,6.89l15.11,16.81c4.9,5.45,1.5,14.89-5.36,14.89Z" fill="#007dcd" stroke="#007dcd" stroke-miterlimit="10" stroke-width="3"/>
    <path id="top" d="M92.87,32.98l-51.65,62.94c-2.91,3.55-.39,8.9,4.21,8.9h103.29c4.6,0,7.12-5.34,4.21-8.9l-51.65-62.94c-2.18-2.65-6.24-2.65-8.42,0Z" fill="#007dcd" stroke="#007dcd" stroke-miterlimit="10" stroke-width="3"/>
  </g>
  <g id="body">
    <path id="center1" data-name="center" d="M52.72,98.35h85.66c4.38,0,7.93,4.09,7.93,9.13v132.46c0,7.67-5.4,13.89-12.06,13.89H56.86c-6.66,0-12.06-6.22-12.06-13.89V107.48c0-5.04,3.55-9.13,7.93-9.13Z" fill="#6ecbff" stroke="#6ecbff" stroke-miterlimit="10" stroke-width="3"/>
    <path id="bottom1" data-name="bottom" d="M163.03,292.4H28.54c-6.82,0-10.23-9.35-5.41-14.83l14.72-16.7c3.98-4.52,9.38-7.06,15.01-7.06h85.56c5.56,0,10.89,2.47,14.86,6.89l15.11,16.81c4.9,5.45,1.5,14.89-5.36,14.89Z" fill="#6ecbff" stroke="#6ecbff" stroke-miterlimit="10" stroke-width="3"/>
    <path id="top1" data-name="top" d="M91.35,26.51l-51.65,62.94c-2.91,3.55-.39,8.9,4.21,8.9h103.29c4.6,0,7.12-5.34,4.21-8.9l-51.65-62.94c-2.18-2.65-6.24-2.65-8.42,0Z" fill="#6ecbff" stroke="#6ecbff" stroke-miterlimit="10" stroke-width="3"/>
  </g>
  <g id="flame-lower">
    <path d="M145.85,305.06c4.54.37,8.44,3.72,10.54,7.76s2.67,8.69,2.85,13.24c.16,4.11,0,8.35-1.59,12.14-2.23,5.29-6.95,9.04-10.63,13.45-3.68,4.41-6.42,10.67-3.82,15.79-5.15-3-7.96-8.95-8.83-14.85s-.09-11.89.31-17.83c.24-3.66.33-7.42-.84-10.9s-3.82-6.66-7.39-7.52-7.86,1.31-8.5,4.92c7.01,4.26,10.25,13.82,7.26,21.46-1.75,4.49-5.25,8.06-7.63,12.25-3.86,6.79-4.6,15.29-1.96,22.64-5.37-3.55-8.11-10.08-8.89-16.47s.09-12.85.37-19.28c.24-5.43-.16-11.44-3.96-15.32-1.11-1.14-2.57-2.06-4.16-2.08-3.5-.04-5.52,3.95-6.18,7.39-1.31,6.9-.51,14.19,2.28,20.63-5.64-6.11-8.68-14.55-8.23-22.85.24-4.3,1.06-9.41-2.23-12.19-3.09-2.61-8.25-1.03-10.47,2.35s-2.11,7.8-1.16,11.73c2.09,8.63,7.83,16.91,6,25.6-2.26,10.69-15.01,16.55-17.63,27.15-1.63,6.59,1.06,13.4,3.7,19.65-9.02-5.48-14.34-16.49-13.02-26.96,1.02-8.06,5.51-15.23,7.93-22.99,1.94-6.22,2.52-12.85,1.7-19.31-.41-3.22-1.2-6.49-3.12-9.1s-5.18-4.44-8.38-3.91c-5.22.87-7.63,7.03-8.02,12.31-.43,5.85.41,11.79,2.45,17.29-6.76-4.65-11.43-12.22-12.57-20.35s2.14-19.51,7.36-25.84h106.45Z" fill="#007dcd"/>
    <path d="M145.85,307.56c4.04.4,7.16,3.81,8.77,7.31,2.06,4.48,2.28,9.88,2.15,14.73-.06,2.43-.38,4.82-1.21,7.11-.77,2.1-2.1,4.01-3.53,5.71-3.03,3.59-6.65,6.69-9.16,10.7-2.95,4.69-4.32,10.4-1.82,15.57l3.42-3.42c-8.51-5.12-8.32-16.58-7.68-25.21.4-5.42,1.23-11.14-.39-16.44-1.34-4.38-4.63-8.61-9.27-9.7-4.8-1.13-10.51,1.6-11.58,6.67-.24,1.12.16,2.21,1.15,2.82,5.61,3.49,8.39,10.84,6.6,17.18-1.11,3.94-3.94,7.16-6.21,10.48-2.48,3.64-4.29,7.69-5.03,12.05-.86,5.07-.54,10.28,1.16,15.15l3.67-2.82c-4.63-3.15-6.91-8.85-7.64-14.22-.96-7.08.35-14.2.42-21.28.06-5.98-1.13-13-6.47-16.6-2.53-1.7-5.81-1.86-8.31-.03-2.33,1.7-3.68,4.48-4.34,7.23-1.84,7.71-.68,15.99,2.4,23.21l3.93-3.03c-3.35-3.68-5.67-8.18-6.8-13.03-.56-2.38-.79-4.8-.73-7.24s.39-4.63.27-6.95c-.25-4.89-2.85-9.41-8.14-9.83-4.92-.39-9.18,3.16-10.77,7.6-1.82,5.08-.4,10.72,1.35,15.61s4.24,9.72,4.73,14.91c.42,4.37-.95,8.09-3.45,11.6-2.33,3.26-5.3,6.03-7.9,9.07-3.23,3.76-6.07,7.96-6.79,12.96-.97,6.7,1.48,13.12,4.04,19.18l3.67-2.82c-6.37-3.93-10.72-10.82-11.76-18.21-1.28-9.09,3.46-17.23,6.6-25.42,1.78-4.64,2.89-9.46,3.25-14.42s.13-9.92-1.32-14.49-4.29-8.25-8.79-9.69c-3.89-1.25-8.08.16-10.65,3.27-2.84,3.45-3.87,7.94-4.07,12.32-.26,5.69.66,11.45,2.6,16.8l3.67-2.82c-5.26-3.68-9.09-9.28-10.74-15.46s-.66-12.25,1.36-18.02c1.09-3.1,2.59-6.22,4.67-8.78l-1.77.73h93.36c4.29,0,8.62.16,12.91,0,.06,0,.12,0,.19,0,3.22,0,3.22-5,0-5H59.38c-6.52,0-13.05-.12-19.57,0-.13,0-.26,0-.39,0-2.09.12-3.43,2.8-4.4,4.43-2.49,4.18-4.18,8.94-5.04,13.73s-.91,9.67.39,14.42,3.89,9.51,7.3,13.31c1.68,1.88,3.61,3.51,5.68,4.96,1.74,1.22,4.4-.82,3.67-2.82-1.6-4.38-2.47-8.95-2.47-13.62,0-3.43.37-6.99,2.21-9.97,1.48-2.4,4.02-3.69,6.82-2.41,3.7,1.69,4.97,5.99,5.54,9.69.67,4.39.58,9.01-.19,13.39s-2.33,8.65-4.07,12.8-3.55,8.13-4.59,12.43c-.98,4.05-1.15,8.12-.48,12.23,1.38,8.57,6.64,16.41,14.02,20.96,1.7,1.05,4.55-.75,3.67-2.82-2.07-4.92-4.32-10.16-4.08-15.6.17-3.92,2.07-7.39,4.49-10.4,4.86-6.03,11.62-11.26,13.46-19.16,1.17-5.02.09-10.1-1.6-14.87s-4.01-9.38-4.73-14.37c-.52-3.64.07-8.3,3.93-9.83,1.42-.56,3-.61,4.17.42,1.27,1.12,1.46,3.01,1.5,4.59.05,2.42-.3,4.82-.3,7.23,0,2.8.37,5.64,1.06,8.35,1.39,5.45,4.16,10.48,7.94,14.64.83.91,2.35.93,3.28.2,1.05-.84,1.15-2.04.64-3.23-2.35-5.53-3.15-11.89-2.19-17.82.33-2.03.88-4.62,2.6-5.97,1.51-1.18,3.4.29,4.51,1.8,3.17,4.32,2.59,10.49,2.27,15.52-.42,6.56-1.05,13.19.31,19.68,1.27,6.09,4.39,11.79,9.6,15.33,1.76,1.2,4.38-.8,3.67-2.82-1.44-4.13-1.89-8.58-1.09-12.9s2.89-8.27,5.53-11.97c2.47-3.47,5.05-7.03,5.92-11.3.78-3.82.47-7.88-.94-11.52-1.63-4.19-4.4-7.76-8.24-10.15l1.15,2.82c.61-2.92,4.16-3.97,6.69-2.73,3.71,1.82,5.03,6.23,5.23,10.05.26,5.06-.58,10.13-.76,15.18-.17,4.74.12,9.63,1.77,14.11s4.46,8.55,8.65,11.07c2.28,1.37,4.45-1.28,3.42-3.42-1.96-4.06.48-8.93,2.96-12.18,2.96-3.89,6.8-7,9.57-11.06,3.1-4.55,3.97-9.91,3.89-15.32s-.67-11.14-3.23-16.05c-2.54-4.87-7.18-8.44-12.7-8.99-1.35-.13-2.5,1.24-2.5,2.5,0,1.46,1.15,2.37,2.5,2.5Z" fill="#007dcd"/>
  </g>
  <g id="flame-upper">
    <path d="M145.85,298.88c4.54.37,8.44,3.72,10.54,7.76s2.67,8.69,2.85,13.24c.16,4.11,0,8.35-1.59,12.14-2.23,5.29-6.95,9.04-10.63,13.45-3.68,4.41-6.42,10.67-3.82,15.79-5.15-3-7.96-8.95-8.83-14.85s-.09-11.89.31-17.83c.24-3.66.33-7.42-.84-10.9s-3.82-6.66-7.39-7.52-7.86,1.31-8.5,4.92c7.01,4.26,10.25,13.82,7.26,21.46-1.75,4.49-5.25,8.06-7.63,12.25-3.86,6.79-4.6,15.29-1.96,22.64-5.37-3.55-8.11-10.08-8.89-16.47s.09-12.85.37-19.28c.24-5.43-.16-11.44-3.96-15.32-1.11-1.14-2.57-2.06-4.16-2.08-3.5-.04-5.52,3.95-6.18,7.39-1.31,6.9-.51,14.19,2.28,20.63-5.64-6.11-8.68-14.55-8.23-22.85.24-4.3,1.06-9.41-2.23-12.19-3.09-2.61-8.25-1.03-10.47,2.35s-2.11,7.8-1.16,11.73c2.09,8.63,7.83,16.91,6,25.6-2.26,10.69-15.01,16.55-17.63,27.15-1.63,6.59,1.06,13.4,3.7,19.65-9.02-5.48-14.34-16.49-13.02-26.96,1.02-8.06,5.51-15.23,7.93-22.99,1.94-6.22,2.52-12.85,1.7-19.31-.41-3.22-1.2-6.49-3.12-9.1s-5.18-4.44-8.38-3.91c-5.22.87-7.63,7.03-8.02,12.31-.43,5.85.41,11.79,2.45,17.29-6.76-4.65-11.43-12.22-12.57-20.35s2.14-19.51,7.36-25.84h106.45Z" fill="#6ecbff"/>
    <path d="M145.85,301.38c4.04.4,7.16,3.81,8.77,7.31,2.06,4.48,2.28,9.88,2.15,14.73-.06,2.43-.38,4.82-1.21,7.11-.77,2.1-2.1,4.01-3.53,5.71-3.03,3.59-6.65,6.69-9.16,10.7-2.95,4.69-4.32,10.4-1.82,15.57l3.42-3.42c-8.51-5.12-8.32-16.58-7.68-25.21.4-5.42,1.23-11.14-.39-16.44-1.34-4.38-4.63-8.61-9.27-9.7-4.8-1.13-10.51,1.6-11.58,6.67-.24,1.12.16,2.21,1.15,2.82,5.61,3.49,8.39,10.84,6.6,17.18-1.11,3.94-3.94,7.16-6.21,10.48-2.48,3.64-4.29,7.69-5.03,12.05-.86,5.07-.54,10.28,1.16,15.15l3.67-2.82c-4.63-3.15-6.91-8.85-7.64-14.22-.96-7.08.35-14.2.42-21.28.06-5.98-1.13-13-6.47-16.6-2.53-1.7-5.81-1.86-8.31-.03-2.33,1.7-3.68,4.48-4.34,7.23-1.84,7.71-.68,15.99,2.4,23.21l3.93-3.03c-3.35-3.68-5.67-8.18-6.8-13.03-.56-2.38-.79-4.8-.73-7.24s.39-4.63.27-6.95c-.25-4.89-2.85-9.41-8.14-9.83-4.92-.39-9.18,3.16-10.77,7.6-1.82,5.08-.4,10.72,1.35,15.61s4.24,9.72,4.73,14.91c.42,4.37-.95,8.09-3.45,11.6-2.33,3.26-5.3,6.03-7.9,9.07-3.23,3.76-6.07,7.96-6.79,12.96-.97,6.7,1.48,13.12,4.04,19.18l3.67-2.82c-6.37-3.93-10.72-10.82-11.76-18.21-1.28-9.09,3.46-17.23,6.6-25.42,1.78-4.64,2.89-9.46,3.25-14.42s.13-9.92-1.32-14.49-4.29-8.25-8.79-9.69c-3.89-1.25-8.08.16-10.65,3.27-2.84,3.45-3.87,7.94-4.07,12.32-.26,5.69.66,11.45,2.6,16.8l3.67-2.82c-5.26-3.68-9.09-9.28-10.74-15.46s-.66-12.25,1.36-18.02c1.09-3.1,2.59-6.22,4.67-8.78l-1.77.73h93.36c4.29,0,8.62.16,12.91,0,.06,0,.12,0,.19,0,3.22,0,3.22-5,0-5H59.38c-6.52,0-13.05-.12-19.57,0-.13,0-.26,0-.39,0-2.09.12-3.43,2.8-4.4,4.43-2.49,4.18-4.18,8.94-5.04,13.73s-.91,9.67.39,14.42,3.89,9.51,7.3,13.31c1.68,1.88,3.61,3.51,5.68,4.96,1.74,1.22,4.4-.82,3.67-2.82-1.6-4.38-2.47-8.95-2.47-13.62,0-3.43.37-6.99,2.21-9.97,1.48-2.4,4.02-3.69,6.82-2.41,3.7,1.69,4.97,5.99,5.54,9.69.67,4.39.58,9.01-.19,13.39s-2.33,8.65-4.07,12.8-3.55,8.13-4.59,12.43c-.98,4.05-1.15,8.12-.48,12.23,1.38,8.57,6.64,16.41,14.02,20.96,1.7,1.05,4.55-.75,3.67-2.82-2.07-4.92-4.32-10.16-4.08-15.6.17-3.92,2.07-7.39,4.49-10.4,4.86-6.03,11.62-11.26,13.46-19.16,1.17-5.02.09-10.1-1.6-14.87s-4.01-9.38-4.73-14.37c-.52-3.64.07-8.3,3.93-9.83,1.42-.56,3-.61,4.17.42,1.27,1.12,1.46,3.01,1.5,4.59.05,2.42-.3,4.82-.3,7.23,0,2.8.37,5.64,1.06,8.35,1.39,5.45,4.16,10.48,7.94,14.64.83.91,2.35.93,3.28.2,1.05-.84,1.15-2.04.64-3.23-2.35-5.53-3.15-11.89-2.19-17.82.33-2.03.88-4.62,2.6-5.97,1.51-1.18,3.4.29,4.51,1.8,3.17,4.32,2.59,10.49,2.27,15.52-.42,6.56-1.05,13.19.31,19.68,1.27,6.09,4.39,11.79,9.6,15.33,1.76,1.2,4.38-.8,3.67-2.82-1.44-4.13-1.89-8.58-1.09-12.9s2.89-8.27,5.53-11.97c2.47-3.47,5.05-7.03,5.92-11.3.78-3.82.47-7.88-.94-11.52-1.63-4.19-4.4-7.76-8.24-10.15l1.15,2.82c.61-2.92,4.16-3.97,6.69-2.73,3.71,1.82,5.03,6.23,5.23,10.05.26,5.06-.58,10.13-.76,15.18-.17,4.74.12,9.63,1.77,14.11s4.46,8.55,8.65,11.07c2.28,1.37,4.45-1.28,3.42-3.42-1.96-4.06.48-8.93,2.96-12.18,2.96-3.89,6.8-7,9.57-11.06,3.1-4.55,3.97-9.91,3.89-15.32s-.67-11.14-3.23-16.05-7.18-8.44-12.7-8.99c-1.35-.13-2.5,1.24-2.5,2.5,0,1.46,1.15,2.37,2.5,2.5Z" fill="#6ecbff"/>
  </g>
</svg>