<?xml version="1.0" encoding="UTF-8"?>
<svg id="main-container" xmlns="http://www.w3.org/2000/svg" version="1.1" xmlns:xlink="http://www.w3.org/1999/xlink" viewBox="0 0 841.32 1200.48">
  <!-- Generator: Adobe Illustrator 29.5.1, SVG Export Plug-In . SVG Version: 2.1.0 Build 141)  -->
  <defs>
    <filter id="drop-shadow-1" x="-8.5" y="-4.58" width="872" height="1228" filterUnits="userSpaceOnUse">
      <feOffset dx="7" dy="7"/>
      <feGaussianBlur result="blur" stdDeviation="5"/>
      <feFlood flood-color="#000" flood-opacity=".9"/>
      <feComposite in2="blur" operator="in"/>
      <feComposite in="SourceGraphic"/>
    </filter>
    <linearGradient id="linear-gradient" x1="101.76" y1="9.22" x2="320.43" y2="9.22" gradientUnits="userSpaceOnUse">
      <stop offset="0" stop-color="#0a0a55"/>
      <stop offset=".33" stop-color="#102cbb"/>
      <stop offset=".58" stop-color="#2d6eb7"/>
      <stop offset=".77" stop-color="#2599cd"/>
      <stop offset=".88" stop-color="#4775bc"/>
    </linearGradient>
    <filter id="drop-shadow-2" x="194.5" y="-4.58" width="469" height="44" filterUnits="userSpaceOnUse">
      <feOffset dx="7" dy="7"/>
      <feGaussianBlur result="blur1" stdDeviation="5"/>
      <feFlood flood-color="#000" flood-opacity=".9"/>
      <feComposite in2="blur1" operator="in"/>
      <feComposite in="SourceGraphic"/>
    </filter>
  </defs>
  <g id="outer">
    <path d="M794.63,4.99h-136.58c-15.01,7.33-30.01,14.67-45.02,22-63.91.12-127.81.24-191.72.35-63.91-.12-127.81-.24-191.72-.35-15.01-7.33-30.01-14.67-45.02-22H47.99L2.46,43.31l-1.14,1133.1c16.19,7.69,32.37,15.38,48.56,23.07,102.01,0,300.06-.42,300.06-.42l29.93-31.7h80.73l28.96,32.12h300.89l48.56-23.07,1.14-1133.1-45.53-38.33Z" fill="none" filter="url(#drop-shadow-1)" stroke="#06a2cc" stroke-miterlimit="10" stroke-width="2"/>
    <polygon points="641.31 4.25 202.7 4.99 231.03 16.55 608.4 16.86 641.31 4.25" fill="url(#linear-gradient)" filter="url(#drop-shadow-2)"/>
  </g>
  <g id="inner">
    <polyline points="359.14 1167.3 374.57 1157.78 463.36 1157.78 479.39 1167.3" fill="none" stroke="#74a7d1" stroke-miterlimit="10"/>
    <polygon points="360.32 1167.3 315.63 1167.3 289.84 1194.63 340.25 1194.63 366.73 1167.3 360.32 1167.3" fill="#74a7d1"/>
    <polygon points="485.85 1167.3 524.07 1167.3 549.87 1194.63 499.45 1194.63 472.98 1167.3 485.85 1167.3" fill="#74a7d1"/>
    <polyline points="305.91 1177.6 298.35 1177.53 62.71 1178.54 23.51 1159.37 24.64 40.65 51.71 18.29 178.42 18.29 228.5 44.2 407.74 44.2 430.34 44.2 611.26 44.2 661.34 18.29 788.06 18.29 815.12 40.65 813.98 1159.37 774.78 1178.54 549.87 1177.58 533.92 1177.73" fill="none" stroke="#74a7d1" stroke-miterlimit="10"/>
  </g>
</svg>