<?xml version="1.0" encoding="UTF-8"?>
<svg id="main-container" xmlns="http://www.w3.org/2000/svg" version="1.1" xmlns:xlink="http://www.w3.org/1999/xlink" viewBox="0 0 1200 842.61">
  <!-- Generator: Adobe Illustrator 29.5.1, SVG Export Plug-In . SVG Version: 2.1.0 Build 141)  -->
  <defs>
    <linearGradient id="linear-gradient" x1="289.12" y1="7.42" x2="913.59" y2="7.42" gradientUnits="userSpaceOnUse">
      <stop offset="0" stop-color="#0a0a55"/>
      <stop offset=".33" stop-color="#102cbb"/>
      <stop offset=".58" stop-color="#2d6eb7"/>
      <stop offset=".77" stop-color="#2599cd"/>
      <stop offset=".88" stop-color="#4775bc"/>
    </linearGradient>
  </defs>
  <g id="outer">
    <path d="M1134.73,3.51h-194.95c-21.42,5.15-42.84,10.3-64.26,15.44-91.22.08-182.43.17-273.65.25-91.22-.08-182.43-.17-273.65-.25-21.42-5.15-42.84-10.3-64.26-15.44H69.01L4.03,30.42l-1.63,795.38c23.1,5.4,46.21,10.79,69.31,16.19,145.61,0,428.29-.29,428.29-.29l42.72-22.25h115.22l41.33,22.55h429.48l69.31-16.19,1.63-795.38-64.98-26.9Z" fill="none" stroke="#06a2cc" stroke-miterlimit="10" stroke-width="2"/>
    <polygon points="913.59 2.99 289.12 3.51 329.45 11.63 866.73 11.85 913.59 2.99" fill="url(#linear-gradient)"/>
  </g>
  <g id="inner">
    <polyline points="511.85 819.4 533.81 812.71 660.23 812.71 683.05 819.4" fill="none" stroke="#74a7d1" stroke-miterlimit="10"/>
    <polygon points="513.53 819.4 449.91 819.4 413.18 838.58 484.96 838.58 522.65 819.4 513.53 819.4" fill="#74a7d1"/>
    <polygon points="692.26 819.4 746.67 819.4 783.4 838.58 711.62 838.58 673.93 819.4 692.26 819.4" fill="#74a7d1"/>
    <polyline points="436.07 826.63 425.3 826.58 89.8 827.29 33.98 813.84 35.61 28.54 74.14 12.85 254.55 12.85 325.85 31.04 581.05 31.04 613.22 31.04 870.81 31.04 942.11 12.85 1122.53 12.85 1161.06 28.54 1159.44 813.84 1103.62 827.29 783.4 826.61 760.69 826.72" fill="none" stroke="#74a7d1" stroke-miterlimit="10"/>
  </g>
</svg>