<?xml version="1.0" encoding="UTF-8"?>
<svg id="main-container" xmlns="http://www.w3.org/2000/svg" version="1.1" xmlns:xlink="http://www.w3.org/1999/xlink" viewBox="0 0 3851.32 2172.83">
  <!-- Generator: Adobe Illustrator 29.5.1, SVG Export Plug-In . SVG Version: 2.1.0 Build 141)  -->
  <defs>
    <linearGradient id="linear-gradient" x1="927.36" y1="22.75" x2="2932.58" y2="22.75" gradientUnits="userSpaceOnUse">
      <stop offset="0" stop-color="#0a0a55"/>
      <stop offset=".33" stop-color="#102cbb"/>
      <stop offset=".58" stop-color="#2d6eb7"/>
      <stop offset=".77" stop-color="#2599cd"/>
      <stop offset=".88" stop-color="#4775bc"/>
    </linearGradient>
  </defs>
  <g id="outer">
    <path d="M3642.66,12.74h-625.99c-68.78,13.19-137.56,26.38-206.35,39.58-292.9.21-585.8.43-878.71.64-292.9-.21-585.8-.43-878.71-.64-68.78-13.19-137.56-26.38-206.35-39.58H220.57L11.91,81.68l-5.22,2038.25c74.19,13.83,148.38,27.66,222.57,41.49,467.56,0,1375.28-.75,1375.28-.75l137.18-57.02h370l132.73,57.78h1379.08l222.57-41.49,5.22-2038.25-208.66-68.94Z" fill="none" stroke="#06a2cc" stroke-miterlimit="10" stroke-width="4"/>
    <polygon points="2932.58 11.41 927.36 12.74 1056.86 33.54 2782.11 34.09 2932.58 11.41" fill="url(#linear-gradient)"/>
  </g>
  <g id="inner">
    <polyline points="1642.54 2103.55 1713.08 2086.41 2119.01 2086.41 2192.3 2103.55" fill="none" stroke="#74a7d1" stroke-miterlimit="10" stroke-width="4"/>
    <polygon points="1647.94 2103.55 1443.65 2103.55 1325.71 2152.7 1556.2 2152.7 1677.23 2103.55 1647.94 2103.55" fill="#74a7d1"/>
    <polygon points="2221.86 2103.55 2396.59 2103.55 2514.53 2152.7 2284.04 2152.7 2163.01 2103.55 2221.86 2103.55" fill="#74a7d1"/>
    <polyline points="1399.21 2122.07 1364.64 2121.95 287.33 2123.75 108.1 2089.28 113.3 76.89 237.03 36.67 816.35 36.67 1045.3 83.27 1864.75 83.27 1968.05 83.27 2795.21 83.27 3024.16 36.67 3603.48 36.67 3727.21 76.89 3722 2089.28 3542.77 2123.75 2514.53 2122.03 2441.61 2122.31" fill="none" stroke="#74a7d1" stroke-miterlimit="10" stroke-width="4"/>
  </g>
</svg>