<?xml version="1.0" encoding="UTF-8"?>
<svg id="heading-container" xmlns="http://www.w3.org/2000/svg" version="1.1" xmlns:xlink="http://www.w3.org/1999/xlink" viewBox="0 0 329.62 85.54">
  <!-- Generator: Adobe Illustrator 29.5.1, SVG Export Plug-In . SVG Version: 2.1.0 Build 141)  -->
  <defs>
    <radialGradient id="radial-gradient" cx="140.39" cy="-69.11" fx="140.39" fy="-69.11" r="636.5" gradientTransform="translate(110.73 58.9) scale(.38 .25)" gradientUnits="userSpaceOnUse">
      <stop offset="0" stop-color="#0a0a55"/>
      <stop offset=".21" stop-color="#102cbb"/>
      <stop offset=".37" stop-color="#2d6eb7"/>
      <stop offset=".49" stop-color="#2599cd"/>
      <stop offset=".68" stop-color="#4775bc"/>
      <stop offset=".84" stop-color="#fff"/>
      <stop offset=".95" stop-color="#e6e3f3"/>
    </radialGradient>
    <filter id="drop-shadow-1" x="54.5" y="5.42" width="234" height="87" filterUnits="userSpaceOnUse">
      <feOffset dx="7" dy="7"/>
      <feGaussianBlur result="blur" stdDeviation="5"/>
      <feFlood flood-color="#000" flood-opacity=".9"/>
      <feComposite in2="blur" operator="in"/>
      <feComposite in="SourceGraphic"/>
    </filter>
  </defs>
  <polygon points="250.12 69.42 266.16 59.28 265.93 23.79 249.68 14.22 79.76 14.22 63.5 23.79 63.28 59.28 79.31 69.42 250.12 69.42" fill="url(#radial-gradient)" filter="url(#drop-shadow-1)"/>
  <line x1="52.8" y1="7.04" x2="82.02" y2="32.11" fill="none" stroke="#06a2cc" stroke-miterlimit="10"/>
  <ellipse cx="50.27" cy="6.02" rx="2.69" ry="2.88" fill="none" stroke="#06a2cc" stroke-miterlimit="10"/>
  <line x1="6.94" y1="6.02" x2="47.59" y2="6.02" fill="none" stroke="#06a2cc" stroke-miterlimit="10"/>
  <ellipse cx="4.25" cy="6.02" rx="2.69" ry="2.88" fill="none" stroke="#06a2cc" stroke-miterlimit="10"/>
  <line x1="276.82" y1="6.95" x2="247.6" y2="32.02" fill="none" stroke="#06a2cc" stroke-miterlimit="10"/>
  <ellipse cx="279.35" cy="5.92" rx="2.69" ry="2.88" fill="none" stroke="#06a2cc" stroke-miterlimit="10"/>
  <line x1="322.68" y1="5.92" x2="282.03" y2="5.92" fill="none" stroke="#06a2cc" stroke-miterlimit="10"/>
  <ellipse cx="325.37" cy="5.92" rx="2.69" ry="2.88" fill="none" stroke="#06a2cc" stroke-miterlimit="10"/>
  <polyline points="231.17 64.39 243.47 57.95 243.3 35.43" fill="none" opacity=".87" stroke="#e3f1ff" stroke-miterlimit="10"/>
  <polyline points="100.48 29.35 88.01 35.43 87.84 57.95" fill="none" opacity=".87" stroke="#e3f1ff" stroke-miterlimit="10"/>
</svg>