<?xml version="1.0" encoding="UTF-8"?>
<svg id="main-container" xmlns="http://www.w3.org/2000/svg" version="1.1" xmlns:xlink="http://www.w3.org/1999/xlink" viewBox="0 0 378.04 742.76">
  <!-- Generator: Adobe Illustrator 29.5.1, SVG Export Plug-In . SVG Version: 2.1.0 Build 141)  -->
  <defs>
    <filter id="drop-shadow-1" x="-9.5" y="-8.58" width="411" height="775" filterUnits="userSpaceOnUse">
      <feOffset dx="7" dy="7"/>
      <feGaussianBlur result="blur" stdDeviation="5"/>
      <feFlood flood-color="#000" flood-opacity=".9"/>
      <feComposite in2="blur" operator="in"/>
      <feComposite in="SourceGraphic"/>
    </filter>
    <linearGradient id="linear-gradient" x1="90.95" y1="4.15" x2="288.49" y2="4.15" gradientUnits="userSpaceOnUse">
      <stop offset="0" stop-color="#0a0a55"/>
      <stop offset=".33" stop-color="#102cbb"/>
      <stop offset=".58" stop-color="#2d6eb7"/>
      <stop offset=".77" stop-color="#2599cd"/>
      <stop offset=".88" stop-color="#4775bc"/>
    </linearGradient>
    <filter id="drop-shadow-2" x="82.5" y="-7.58" width="228" height="39" filterUnits="userSpaceOnUse">
      <feOffset dx="7" dy="7"/>
      <feGaussianBlur result="blur1" stdDeviation="5"/>
      <feFlood flood-color="#000" flood-opacity=".9"/>
      <feComposite in2="blur1" operator="in"/>
      <feComposite in="SourceGraphic"/>
    </filter>
  </defs>
  <g id="outer">
    <path d="M357.53,1.16h-61.51c-6.76,4.55-13.52,9.1-20.28,13.66-28.78.07-57.56.15-86.34.22-28.78-.07-57.56-.15-86.34-.22-6.76-4.55-13.52-9.1-20.28-13.66H21.28L.77,24.94.26,728.21c7.29,4.77,14.58,9.54,21.87,14.32,45.94,0,135.14-.26,135.14-.26l13.48-19.68h36.36l13.04,19.94h135.51l21.87-14.32.51-703.27-20.5-23.79Z" fill="none" filter="url(#drop-shadow-1)" stroke="#06a2cc" stroke-miterlimit="10" stroke-width="2"/>
    <polygon points="288.49 .69 90.95 1.16 103.71 8.33 273.66 8.52 288.49 .69" fill="url(#linear-gradient)" filter="url(#drop-shadow-2)"/>
  </g>
  <g id="inner">
    <polyline points="161.41 722.56 168.35 716.65 208.34 716.65 215.56 722.56" fill="none" stroke="#74a7d1" stroke-miterlimit="10"/>
    <polygon points="161.94 722.56 141.81 722.56 130.19 739.52 152.9 739.52 164.82 722.56 161.94 722.56" fill="#74a7d1"/>
    <polygon points="218.47 722.56 235.69 722.56 247.3 739.52 224.6 739.52 212.68 722.56 218.47 722.56" fill="#74a7d1"/>
    <polyline points="137.44 728.95 134.03 728.91 27.91 729.53 10.25 717.64 10.76 23.29 22.95 9.41 80.02 9.41 102.57 25.49 183.3 25.49 193.47 25.49 274.95 25.49 297.51 9.41 354.58 9.41 366.76 23.29 366.25 717.64 348.6 729.53 247.3 728.94 240.12 729.03" fill="none" stroke="#74a7d1" stroke-miterlimit="10"/>
  </g>
</svg>