<?xml version="1.0" encoding="UTF-8"?><svg id="about-me" xmlns="http://www.w3.org/2000/svg" xmlns:xlink="http://www.w3.org/1999/xlink" viewBox="0 0 283.07 107.33"><defs><radialGradient id="radial-gradient" cx="136.73" cy="39.91" fx="136.73" fy="39.91" r="245.72" gradientTransform="translate(-52.6 22.86) scale(1.42 .77)" gradientUnits="userSpaceOnUse"><stop offset=".31" stop-color="#0a0a55"/><stop offset=".58" stop-color="#2599cd"/><stop offset=".77" stop-color="#2797cc"/><stop offset=".92" stop-color="#4775bc"/></radialGradient></defs><g id="about-me-2"><polygon points="42.94 .5 .5 28.49 .5 76.37 35.1 106.83 251.2 106.83 282.57 76.37 282.57 27.18 251.2 .5 42.94 .5" fill="url(#radial-gradient)" stroke="#2599cd" stroke-miterlimit="10"/><g id="projects"><path d="M72.73,48.96c0-.67.16-1.28.49-1.83.33-.55.76-.99,1.31-1.32s1.16-.49,1.83-.49h12.81c.67,0,1.28.16,1.84.49s1,.77,1.33,1.32c.33.55.49,1.16.49,1.83v16.52h-3.04v-7.06h-14.04v7.06h-3.01v-16.52ZM89.79,55.4v-6.36c0-.19-.07-.35-.2-.49-.13-.14-.29-.21-.47-.21h-12.67c-.19,0-.35.07-.49.21-.14.14-.21.3-.21.49v6.36h14.04Z" fill="#fff"/><path d="M95.96,65.48v-21.56h3.01v5.32h9.83c.67,0,1.28.17,1.83.5.55.34.99.78,1.31,1.33.33.55.49,1.15.49,1.81v8.96c0,.65-.16,1.26-.49,1.81-.33.55-.76.99-1.31,1.33-.55.34-1.16.5-1.83.5h-12.84ZM99.67,62.45h9.04c.19,0,.35-.07.49-.21.14-.14.21-.3.21-.49v-8.79c0-.19-.07-.35-.21-.49-.14-.14-.3-.21-.49-.21h-9.04c-.19,0-.35.07-.49.21-.14.14-.21.3-.21.49v8.79c0,.19.07.35.21.49.14.14.3.21.49.21Z" fill="#fff"/><path d="M116.32,64.97c-.55-.34-.99-.78-1.33-1.33-.33-.55-.5-1.15-.5-1.81v-8.96c0-.65.17-1.25.5-1.81s.78-.99,1.33-1.33,1.15-.5,1.8-.5h9.21c.67,0,1.28.17,1.83.5s.99.78,1.31,1.33.49,1.15.49,1.81v8.96c0,.65-.16,1.26-.49,1.81-.33.55-.76.99-1.31,1.33s-1.16.5-1.83.5h-9.21c-.65,0-1.25-.17-1.8-.5ZM118.2,62.45h9.04c.19,0,.34-.07.47-.21.13-.14.2-.3.2-.49v-8.79c0-.19-.07-.35-.2-.49-.13-.14-.29-.21-.47-.21h-9.04c-.19,0-.35.07-.49.21-.14.14-.21.3-.21.49v8.79c0,.19.07.35.21.49.14.14.3.21.49.21Z" fill="#fff"/><path d="M134.99,64.97c-.55-.34-.99-.78-1.31-1.33-.33-.55-.49-1.15-.49-1.81v-12.6h3.01v12.52c0,.19.07.35.21.49.14.14.3.21.49.21h9.04c.19,0,.35-.07.49-.21.14-.14.21-.3.21-.49v-12.52h3.01v12.6c0,.65-.16,1.26-.49,1.81-.33.55-.76.99-1.31,1.33-.55.34-1.16.5-1.83.5h-9.21c-.67,0-1.28-.17-1.83-.5Z" fill="#fff"/><path d="M153.86,64.97c-.55-.34-.99-.78-1.31-1.33-.33-.55-.49-1.15-.49-1.81v-17.72h3.01v5.12h6.64v3.02h-6.64v9.49c0,.19.07.35.21.49.14.14.3.21.49.21h5.95v3.02h-6.03c-.67,0-1.28-.17-1.83-.5Z" fill="#fff"/><path d="M172.11,65.48v-20.16h3.6l7.79,9.3,7.76-9.3h3.63v20.16h-3.04v-16.1l-8.35,9.97-8.37-9.97v16.1h-3.01Z" fill="#fff"/><path d="M199.7,64.97c-.55-.34-.99-.78-1.33-1.33-.33-.55-.5-1.15-.5-1.81v-8.96c0-.65.17-1.25.5-1.81s.78-.99,1.33-1.33,1.15-.5,1.8-.5h9.21c.67,0,1.28.17,1.83.5s.99.78,1.31,1.33.49,1.15.49,1.81v5.99h-13.46v2.88c0,.19.07.35.21.49.14.14.3.21.49.21h12.76v3.02h-12.84c-.65,0-1.25-.17-1.8-.5ZM200.89,56.04h10.41v-3.08c0-.19-.07-.35-.2-.49-.13-.14-.29-.21-.47-.21h-9.04c-.19,0-.35.07-.49.21-.14.14-.21.3-.21.49v3.08Z" fill="#fff"/></g></g></svg>