<?xml version="1.0" encoding="UTF-8"?><svg id="contact" xmlns="http://www.w3.org/2000/svg" xmlns:xlink="http://www.w3.org/1999/xlink" viewBox="0 0 283.07 107.33"><defs><radialGradient id="radial-gradient" cx="136.73" cy="39.91" fx="136.73" fy="39.91" r="245.72" gradientTransform="translate(-52.6 22.86) scale(1.42 .77)" gradientUnits="userSpaceOnUse"><stop offset=".31" stop-color="#0a0a55"/><stop offset=".58" stop-color="#2599cd"/><stop offset=".77" stop-color="#2797cc"/><stop offset=".92" stop-color="#4775bc"/></radialGradient></defs><g id="contact-2"><polygon points="42.94 .5 .5 28.49 .5 76.37 35.1 106.83 251.2 106.83 282.57 76.37 282.57 27.18 251.2 .5 42.94 .5" fill="url(#radial-gradient)" stroke="#2599cd" stroke-miterlimit="10"/><g id="projects"><path d="M86.43,65.48c-.67,0-1.28-.16-1.83-.49-.55-.33-.99-.77-1.31-1.32-.33-.55-.49-1.16-.49-1.83v-12.88c0-.67.16-1.28.49-1.83.33-.55.76-.99,1.31-1.32.55-.33,1.16-.49,1.83-.49h16.41v3.02h-16c-.3,0-.54.1-.74.29-.2.2-.29.44-.29.74v12.04c0,.3.1.55.29.74.2.2.44.29.74.29h16v3.02h-16.41Z" fill="#fff"/><path d="M107.43,64.97c-.55-.34-.99-.78-1.33-1.33-.33-.55-.5-1.15-.5-1.81v-8.96c0-.65.17-1.25.5-1.81s.78-.99,1.33-1.33,1.15-.5,1.8-.5h9.21c.67,0,1.28.17,1.83.5s.99.78,1.31,1.33.49,1.15.49,1.81v8.96c0,.65-.16,1.26-.49,1.81-.33.55-.76.99-1.31,1.33s-1.16.5-1.83.5h-9.21c-.65,0-1.25-.17-1.8-.5ZM109.32,62.45h9.04c.19,0,.34-.07.47-.21.13-.14.2-.3.2-.49v-8.79c0-.19-.07-.35-.2-.49-.13-.14-.29-.21-.47-.21h-9.04c-.19,0-.35.07-.49.21-.14.14-.21.3-.21.49v8.79c0,.19.07.35.21.49.14.14.3.21.49.21Z" fill="#fff"/><path d="M124.45,65.48v-16.24h12.84c.67,0,1.28.17,1.83.5.55.34.99.78,1.31,1.33.33.55.49,1.15.49,1.81v12.6h-3.01v-12.52c0-.19-.07-.35-.21-.49-.14-.14-.3-.21-.49-.21h-9.04c-.19,0-.35.07-.49.21-.14.14-.21.3-.21.49v12.52h-3.01Z" fill="#fff"/><path d="M145.65,64.97c-.55-.34-.99-.78-1.31-1.33-.33-.55-.49-1.15-.49-1.81v-17.72h3.01v5.12h6.64v3.02h-6.64v9.49c0,.19.07.35.21.49.14.14.3.21.49.21h5.95v3.02h-6.03c-.67,0-1.28-.17-1.83-.5Z" fill="#fff"/><path d="M159.62,65.48c-.67,0-1.28-.17-1.83-.5s-.99-.78-1.31-1.33c-.33-.55-.49-1.15-.49-1.81v-5.99h13.43v-2.88c0-.19-.07-.35-.2-.49-.13-.14-.29-.21-.47-.21h-12.76v-3.02h12.84c.67,0,1.28.17,1.83.5s.99.78,1.31,1.33.49,1.15.49,1.81v12.6h-12.84ZM159.7,62.45h9.71v-3.78h-10.41v3.08c0,.19.07.35.21.49.14.14.3.21.49.21Z" fill="#fff"/><path d="M176.63,64.97c-.55-.34-.99-.78-1.33-1.33-.33-.55-.5-1.15-.5-1.81v-8.96c0-.65.17-1.25.5-1.81s.78-.99,1.33-1.33,1.15-.5,1.8-.5h12.78v3.02h-12.7c-.19,0-.35.07-.49.21-.14.14-.21.3-.21.49v8.79c0,.19.07.35.21.49.14.14.3.21.49.21h12.76v3.02h-12.84c-.65,0-1.25-.17-1.8-.5Z" fill="#fff"/><path d="M195.33,64.97c-.55-.34-.99-.78-1.31-1.33-.33-.55-.49-1.15-.49-1.81v-17.72h3.01v5.12h6.64v3.02h-6.64v9.49c0,.19.07.35.21.49.14.14.3.21.49.21h5.95v3.02h-6.03c-.67,0-1.28-.17-1.83-.5Z" fill="#fff"/></g></g></svg>