<?xml version="1.0" encoding="UTF-8"?><svg id="projects" xmlns="http://www.w3.org/2000/svg" xmlns:xlink="http://www.w3.org/1999/xlink" viewBox="0 0 283.07 107.33"><defs><radialGradient id="radial-gradient" cx="136.73" cy="39.91" fx="136.73" fy="39.91" r="245.72" gradientTransform="translate(-52.6 22.86) scale(1.42 .77)" gradientUnits="userSpaceOnUse"><stop offset=".31" stop-color="#0a0a55"/><stop offset=".58" stop-color="#2599cd"/><stop offset=".77" stop-color="#2797cc"/><stop offset=".92" stop-color="#4775bc"/></radialGradient></defs><g id="projects-2"><polygon points="42.94 .5 .5 28.49 .5 76.37 35.1 106.83 251.2 106.83 282.57 76.37 282.57 27.18 251.2 .5 42.94 .5" fill="url(#radial-gradient)" stroke="#2599cd" stroke-miterlimit="10"/><g id="projects-3"><path d="M57.23,65.48v-20.16h18.48v3.02h-15.43v5.54h12.4v3.02h-12.4v5.54h15.43v3.02h-18.48Z" fill="#fff"/><path d="M78.34,65.48v-.53l6.36-7.73-6.36-7.45v-.53h3.53l4.79,5.63,4.82-5.63h3.5v.53l-6.33,7.45,6.36,7.73v.53h-3.53l-4.82-5.91-4.79,5.91h-3.53Z" fill="#fff"/><path d="M97.94,71.92v-22.68h12.88c.67,0,1.28.17,1.83.5.55.34.99.78,1.32,1.33.33.55.49,1.15.49,1.81v8.96c0,.65-.16,1.26-.49,1.81-.33.55-.77.99-1.32,1.33-.55.34-1.16.5-1.83.5h-9.86v6.44h-3.02ZM101.67,62.45h9.07c.19,0,.35-.07.49-.21s.21-.3.21-.49v-8.79c0-.19-.07-.35-.21-.49-.14-.14-.3-.21-.49-.21h-9.07c-.19,0-.35.07-.49.21-.14.14-.21.3-.21.49v8.79c0,.19.07.35.21.49.14.14.3.21.49.21Z" fill="#fff"/><path d="M118.29,64.97c-.55-.34-.99-.78-1.33-1.33-.34-.55-.5-1.15-.5-1.81v-8.96c0-.65.17-1.25.5-1.81s.78-.99,1.33-1.33c.55-.34,1.15-.5,1.81-.5h9.24c.67,0,1.28.17,1.83.5.55.34.99.78,1.32,1.33.33.55.49,1.15.49,1.81v5.99h-13.5v2.88c0,.19.07.35.21.49s.3.21.49.21h12.8v3.02h-12.88c-.65,0-1.26-.17-1.81-.5ZM119.48,56.04h10.44v-3.08c0-.19-.07-.35-.2-.49-.13-.14-.29-.21-.48-.21h-9.07c-.19,0-.35.07-.49.21-.14.14-.21.3-.21.49v3.08Z" fill="#fff"/><path d="M135.69,65.48v-12.6c0-.65.17-1.25.5-1.81s.78-.99,1.33-1.33c.55-.34,1.15-.5,1.81-.5h9.07v3.02h-8.99c-.19,0-.35.07-.49.21-.14.14-.21.3-.21.49v12.52h-3.02Z" fill="#fff"/><path d="M150.36,46.94v-3.02h3.02v3.02h-3.02ZM150.36,65.48v-16.24h3.02v16.24h-3.02Z" fill="#fff"/><path d="M158.32,64.97c-.55-.34-.99-.78-1.33-1.33-.34-.55-.5-1.15-.5-1.81v-8.96c0-.65.17-1.25.5-1.81s.78-.99,1.33-1.33c.55-.34,1.15-.5,1.81-.5h9.24c.67,0,1.28.17,1.83.5.55.34.99.78,1.32,1.33.33.55.49,1.15.49,1.81v5.99h-13.5v2.88c0,.19.07.35.21.49s.3.21.49.21h12.8v3.02h-12.88c-.65,0-1.26-.17-1.81-.5ZM159.51,56.04h10.44v-3.08c0-.19-.07-.35-.2-.49-.13-.14-.29-.21-.48-.21h-9.07c-.19,0-.35.07-.49.21-.14.14-.21.3-.21.49v3.08Z" fill="#fff"/><path d="M175.95,65.48v-16.24h12.88c.67,0,1.28.17,1.83.5.55.34.99.78,1.32,1.33.33.55.49,1.15.49,1.81v12.6h-3.02v-12.52c0-.19-.07-.35-.21-.49-.14-.14-.3-.21-.49-.21h-9.07c-.19,0-.35.07-.49.21-.14.14-.21.3-.21.49v12.52h-3.02Z" fill="#fff"/><path d="M196.57,64.97c-.55-.34-.99-.78-1.33-1.33-.34-.55-.5-1.15-.5-1.81v-8.96c0-.65.17-1.25.5-1.81s.78-.99,1.33-1.33c.55-.34,1.15-.5,1.81-.5h12.82v3.02h-12.74c-.19,0-.35.07-.49.21-.14.14-.21.3-.21.49v8.79c0,.19.07.35.21.49s.3.21.49.21h12.8v3.02h-12.88c-.65,0-1.26-.17-1.81-.5Z" fill="#fff"/><path d="M215.33,64.97c-.55-.34-.99-.78-1.33-1.33-.34-.55-.5-1.15-.5-1.81v-8.96c0-.65.17-1.25.5-1.81s.78-.99,1.33-1.33c.55-.34,1.15-.5,1.81-.5h9.24c.67,0,1.28.17,1.83.5.55.34.99.78,1.32,1.33.33.55.49,1.15.49,1.81v5.99h-13.5v2.88c0,.19.07.35.21.49s.3.21.49.21h12.8v3.02h-12.88c-.65,0-1.26-.17-1.81-.5ZM216.52,56.04h10.44v-3.08c0-.19-.07-.35-.2-.49-.13-.14-.29-.21-.48-.21h-9.07c-.19,0-.35.07-.49.21-.14.14-.21.3-.21.49v3.08Z" fill="#fff"/></g></g></svg>