<?xml version="1.0" encoding="UTF-8"?><svg id="hero" xmlns="http://www.w3.org/2000/svg" xmlns:xlink="http://www.w3.org/1999/xlink" viewBox="0 0 850.08 184.57"><defs><radialGradient id="radial-gradient" cx="424.81" cy="106.87" fx="424.81" fy="106.87" r="520.08" gradientTransform="translate(0 42.75) scale(1 .6)" gradientUnits="userSpaceOnUse"><stop offset="0" stop-color="#0a0a55"/><stop offset=".21" stop-color="#102cbb"/><stop offset=".37" stop-color="#2d6eb7"/><stop offset=".49" stop-color="#2599cd"/><stop offset=".68" stop-color="#4775bc"/><stop offset=".84" stop-color="#fff"/><stop offset=".95" stop-color="#e6e3f3"/></radialGradient><filter id="drop-shadow-1" x="200.67" y="43.57" width="462" height="141" filterUnits="userSpaceOnUse"><feOffset dx="7" dy="7"/><feGaussianBlur result="blur" stdDeviation="5"/><feFlood flood-color="#000" flood-opacity=".9"/><feComposite in2="blur" operator="in"/><feComposite in="SourceGraphic"/></filter><filter id="drop-shadow-2" x="266.67" y="76.57" width="324" height="75" filterUnits="userSpaceOnUse"><feOffset dx="7" dy="7"/><feGaussianBlur result="blur-2" stdDeviation="5"/><feFlood flood-color="#000" flood-opacity=".75"/><feComposite in2="blur-2" operator="in"/><feComposite in="SourceGraphic"/></filter></defs><g id="name"><g id="container"><polygon points="606.28 161.6 640.35 141.5 639.88 71.12 605.34 52.13 244.27 52.13 209.73 71.12 209.26 141.5 243.33 161.6 606.28 161.6" fill="url(#radial-gradient)" filter="url(#drop-shadow-1)"/><line x1="133.75" y1="10.21" x2="209.73" y2="71.06" fill="none" stroke="#06a2cc" stroke-miterlimit="10"/><circle cx="127.18" cy="7.72" r="6.99" fill="none" stroke="#06a2cc" stroke-miterlimit="10"/><line x1="14.48" y1="7.72" x2="120.19" y2="7.72" fill="none" stroke="#06a2cc" stroke-miterlimit="10"/><circle cx="7.49" cy="7.72" r="6.99" fill="none" stroke="#06a2cc" stroke-miterlimit="10"/><line x1="716.33" y1="9.97" x2="640.35" y2="70.83" fill="none" stroke="#06a2cc" stroke-miterlimit="10"/><circle cx="722.9" cy="7.49" r="6.99" fill="none" stroke="#06a2cc" stroke-miterlimit="10"/><line x1="835.61" y1="7.49" x2="729.89" y2="7.49" fill="none" stroke="#06a2cc" stroke-miterlimit="10"/><circle cx="842.6" cy="7.49" r="6.99" fill="none" stroke="#06a2cc" stroke-miterlimit="10"/><polyline points="597.63 149.38 629.62 133.76 629.18 79.1" fill="none" opacity=".87" stroke="#e3f1ff" stroke-miterlimit="10"/><polyline points="257.76 64.35 225.33 79.1 224.88 133.76" fill="none" opacity=".87" stroke="#e3f1ff" stroke-miterlimit="10"/></g><g filter="url(#drop-shadow-2)"><path d="M274.8,95.79c0-1.44.34-2.77,1.01-3.97s1.57-2.16,2.68-2.88c1.12-.72,2.35-1.08,3.69-1.08h23.44c1.35,0,2.59.36,3.72,1.08,1.13.72,2.04,1.68,2.71,2.88.67,1.2,1.01,2.52,1.01,3.97v33.15h-7.07v-13.81h-24.18v13.81h-7.02v-33.15ZM306,107.61v-11.47c0-.19-.07-.35-.21-.49-.14-.13-.3-.2-.48-.2h-22.85c-.18,0-.33.07-.45.2-.12.13-.19.3-.19.49v11.47h24.18Z" fill="#fff"/><path d="M322.6,127.86c-1.12-.72-2.01-1.68-2.68-2.88-.67-1.2-1.01-2.5-1.01-3.91v-36.12h7.01v35.83c0,.19.06.35.19.48.12.13.27.2.45.2h5.9v7.48h-6.22c-1.31,0-2.52-.36-3.64-1.08Z" fill="#fff"/><path d="M337.35,92.54v-7.53h6.96v7.53h-6.96ZM337.35,128.95v-33.1h6.96v33.1h-6.96Z" fill="#fff"/><path d="M353.16,127.86c-1.12-.72-2.01-1.68-2.68-2.88s-1.01-2.5-1.01-3.91v-17.35c0-1.45.34-2.76,1.01-3.94.67-1.18,1.57-2.13,2.68-2.85,1.12-.72,2.33-1.08,3.64-1.08h16.63c1.35,0,2.58.35,3.69,1.06,1.12.7,2,1.65,2.66,2.85s.98,2.52.98,3.97v12.44h-24.34v4.62c0,.19.06.35.19.48.12.13.27.2.45.2h23.7v7.48h-23.97c-1.31,0-2.52-.36-3.64-1.08ZM356.43,109.43h17.38v-5.42c0-.19-.06-.35-.19-.48-.12-.13-.28-.2-.45-.2h-16.1c-.18,0-.33.07-.45.2-.12.13-.19.29-.19.48v5.42Z" fill="#fff"/><path d="M402.88,95.79c0-1.44.34-2.77,1.01-3.97s1.57-2.16,2.68-2.88c1.12-.72,2.35-1.08,3.69-1.08h23.44c1.35,0,2.59.36,3.72,1.08,1.13.72,2.04,1.68,2.71,2.88.67,1.2,1.01,2.52,1.01,3.97v33.15h-7.07v-13.81h-24.18v13.81h-7.02v-33.15ZM434.07,107.61v-11.47c0-.19-.07-.35-.21-.49-.14-.13-.3-.2-.48-.2h-22.85c-.18,0-.33.07-.45.2-.12.13-.19.3-.19.49v11.47h24.18Z" fill="#fff"/><path d="M447.09,128.95v-33.1h23.97c1.35,0,2.58.36,3.69,1.08,1.12.72,2,1.67,2.66,2.85.65,1.18.98,2.49.98,3.94v25.22h-6.96v-24.94c0-.19-.06-.35-.19-.48-.12-.13-.28-.2-.45-.2h-16.1c-.18,0-.33.07-.45.2-.12.13-.19.29-.19.48v24.94h-6.96Z" fill="#fff"/><path d="M487.7,127.86c-1.1-.72-1.98-1.68-2.66-2.88s-1.01-2.5-1.01-3.91v-35.38h6.96v10.16h12.01v7.48h-12.01v17.46c0,.19.06.35.19.48.12.13.27.2.45.2h11.37v7.48h-11.64c-1.35,0-2.57-.36-3.67-1.08Z" fill="#fff"/><path d="M515.7,128.95c-1.35,0-2.58-.36-3.69-1.08-1.12-.72-2-1.68-2.66-2.88-.66-1.2-.98-2.5-.98-3.91v-12.44h24.34v-4.62c0-.19-.06-.35-.19-.48-.12-.13-.28-.2-.45-.2h-23.7v-7.48h23.97c1.35,0,2.58.35,3.69,1.06,1.12.7,2,1.65,2.66,2.85.66,1.2.98,2.52.98,3.97v25.22h-23.97ZM515.97,121.47h16.74v-6.11h-17.38v5.42c0,.19.06.35.19.48.12.13.27.2.45.2Z" fill="#fff"/><path d="M544.19,128.95v-25.22c0-1.45.34-2.76,1.01-3.94.67-1.18,1.57-2.13,2.68-2.85,1.12-.72,2.33-1.08,3.64-1.08h17.11v7.48h-16.85c-.18,0-.33.07-.45.2-.12.13-.19.29-.19.48v24.94h-6.96Z" fill="#fff"/></g></g></svg>