<?xml version="1.0" encoding="UTF-8"?><svg id="heading-container" xmlns="http://www.w3.org/2000/svg" xmlns:xlink="http://www.w3.org/1999/xlink" viewBox="0 0 850.08 184.57"><defs><radialGradient id="radial-gradient" cx="424.81" cy="94.61" fx="424.81" fy="94.61" r="636.5" gradientTransform="translate(0 37.85) scale(1 .6)" gradientUnits="userSpaceOnUse"><stop offset="0" stop-color="#0a0a55"/><stop offset=".21" stop-color="#102cbb"/><stop offset=".37" stop-color="#2d6eb7"/><stop offset=".49" stop-color="#2599cd"/><stop offset=".68" stop-color="#4775bc"/><stop offset=".84" stop-color="#fff"/><stop offset=".95" stop-color="#e6e3f3"/></radialGradient><filter id="drop-shadow-1" x="152.67" y="19.57" width="558" height="165" filterUnits="userSpaceOnUse"><feOffset dx="7" dy="7"/><feGaussianBlur result="blur" stdDeviation="5"/><feFlood flood-color="#000" flood-opacity=".9"/><feComposite in2="blur" operator="in"/><feComposite in="SourceGraphic"/></filter></defs><g id="svg"><polygon points="646.91 161.6 688.6 136.99 688.03 50.86 645.75 27.63 203.86 27.63 161.58 50.86 161.01 136.99 202.7 161.6 646.91 161.6" fill="url(#radial-gradient)" filter="url(#drop-shadow-1)"/><line x1="133.75" y1="10.21" x2="209.73" y2="71.06" fill="none" stroke="#06a2cc" stroke-miterlimit="10"/><circle cx="127.18" cy="7.72" r="6.99" fill="none" stroke="#06a2cc" stroke-miterlimit="10"/><line x1="14.48" y1="7.72" x2="120.19" y2="7.72" fill="none" stroke="#06a2cc" stroke-miterlimit="10"/><circle cx="7.49" cy="7.72" r="6.99" fill="none" stroke="#06a2cc" stroke-miterlimit="10"/><line x1="716.33" y1="9.97" x2="640.35" y2="70.83" fill="none" stroke="#06a2cc" stroke-miterlimit="10"/><circle cx="722.9" cy="7.49" r="6.99" fill="none" stroke="#06a2cc" stroke-miterlimit="10"/><line x1="835.61" y1="7.49" x2="729.89" y2="7.49" fill="none" stroke="#06a2cc" stroke-miterlimit="10"/><circle cx="842.6" cy="7.49" r="6.99" fill="none" stroke="#06a2cc" stroke-miterlimit="10"/><polyline points="597.63 149.38 629.62 133.76 629.18 79.1" fill="none" opacity=".87" stroke="#e3f1ff" stroke-miterlimit="10"/><polyline points="257.76 64.35 225.33 79.1 224.88 133.76" fill="none" opacity=".87" stroke="#e3f1ff" stroke-miterlimit="10"/></g></svg>