<?xml version="1.0" encoding="UTF-8"?><svg id="main-container" xmlns="http://www.w3.org/2000/svg" xmlns:xlink="http://www.w3.org/1999/xlink" viewBox="0 0 1215 2795"><defs><filter id="drop-shadow-1" x="0" y="1" width="1215" height="2794" filterUnits="userSpaceOnUse"><feOffset dx="7" dy="7"/><feGaussianBlur result="blur" stdDeviation="5"/><feFlood flood-color="#000" flood-opacity=".9"/><feComposite in2="blur" operator="in"/><feComposite in="SourceGraphic"/></filter><linearGradient id="linear-gradient" x1="293.04" y1="23.35" x2="911.14" y2="23.35" gradientUnits="userSpaceOnUse"><stop offset="0" stop-color="#0a0a55"/><stop offset=".33" stop-color="#102cbb"/><stop offset=".58" stop-color="#2d6eb7"/><stop offset=".77" stop-color="#2599cd"/><stop offset=".88" stop-color="#4775bc"/></linearGradient><filter id="drop-shadow-2" x="285" y="0" width="649" height="60" filterUnits="userSpaceOnUse"><feOffset dx="7" dy="7"/><feGaussianBlur result="blur-2" stdDeviation="5"/><feFlood flood-color="#000" flood-opacity=".9"/><feComposite in2="blur-2" operator="in"/><feComposite in="SourceGraphic"/></filter></defs><g id="outer"><path d="M1127.2,10.49h-192.48c-21.15,16.95-42.3,33.91-63.45,50.86-90.06.27-180.12.55-270.18.82-90.06-.27-180.12-.55-270.18-.82-21.15-16.95-42.3-33.91-63.45-50.86H75.01L10.85,99.08l-1.6,2619.22c22.81,17.77,45.62,35.55,68.44,53.32,143.76,0,422.86-.97,422.86-.97l42.18-73.28h113.76l40.81,74.25h424.03l68.44-53.32,1.6-2619.22-64.16-88.59Z" fill="none" filter="url(#drop-shadow-1)" stroke="#06a2cc" stroke-miterlimit="10" stroke-width="2"/><polygon points="911.14 8.77 293.04 10.49 332.96 37.21 864.76 37.92 911.14 8.77" fill="url(#linear-gradient)" filter="url(#drop-shadow-2)"/></g><g id="inner"><polyline points="513.49 2697.24 535.23 2675.22 660.36 2675.22 682.95 2697.24" fill="none" stroke="#74a7d1" stroke-miterlimit="10"/><polygon points="515.15 2697.24 452.18 2697.24 415.83 2760.4 486.88 2760.4 524.18 2697.24 515.15 2697.24" fill="#74a7d1"/><polygon points="692.06 2697.24 745.92 2697.24 782.28 2760.4 711.23 2760.4 673.92 2697.24 692.06 2697.24" fill="#74a7d1"/><polyline points="438.48 2721.04 427.83 2720.88 95.75 2723.21 40.5 2678.91 42.1 92.92 80.24 41.24 258.82 41.24 329.39 101.12 581.99 101.12 613.83 101.12 868.8 101.12 939.37 41.24 1117.95 41.24 1156.08 92.92 1154.48 2678.91 1099.23 2723.21 782.28 2720.99 759.8 2721.35" fill="none" stroke="#74a7d1" stroke-miterlimit="10"/></g></svg>