<?xml version="1.0" encoding="UTF-8"?><svg id="main-container" xmlns="http://www.w3.org/2000/svg" xmlns:xlink="http://www.w3.org/1999/xlink" viewBox="0 0 278 510"><defs><filter id="drop-shadow-1" x="0" y="0" width="278" height="510" filterUnits="userSpaceOnUse"><feOffset dx="7" dy="7"/><feGaussianBlur result="blur" stdDeviation="5"/><feFlood flood-color="#000" flood-opacity=".9"/><feComposite in2="blur" operator="in"/><feComposite in="SourceGraphic"/></filter><linearGradient id="linear-gradient" x1="106.27" y1="29.19" x2="225.18" y2="29.19" gradientUnits="userSpaceOnUse"><stop offset="0" stop-color="#0a0a55"/><stop offset=".33" stop-color="#102cbb"/><stop offset=".58" stop-color="#2d6eb7"/><stop offset=".77" stop-color="#2599cd"/><stop offset=".88" stop-color="#4775bc"/></linearGradient><filter id="drop-shadow-2" x="60" y="0" width="159" height="36" filterUnits="userSpaceOnUse"><feOffset dx="7" dy="7"/><feGaussianBlur result="blur-2" stdDeviation="5"/><feFlood flood-color="#000" flood-opacity=".9"/><feComposite in2="blur-2" operator="in"/><feComposite in="SourceGraphic"/></filter></defs><g id="outer"><path d="M241.56,9.19h-39.94c-4.39,2.93-8.78,5.86-13.16,8.79-18.69.05-37.37.09-56.06.14-18.69-.05-37.37-.09-56.06-.14-4.39-2.93-8.78-5.86-13.16-8.79H23.24l-13.31,15.31-.33,452.56c4.73,3.07,9.47,6.14,14.2,9.21,29.83,0,87.74-.17,87.74-.17l8.75-12.66h23.61l8.47,12.83h87.98l14.2-9.21.33-452.56-13.31-15.31Z" fill="none" filter="url(#drop-shadow-1)" stroke="#06a2cc" stroke-miterlimit="10" stroke-width="2"/><polygon points="196.73 8.89 68.47 9.19 76.76 13.81 187.1 13.93 196.73 8.89" fill="url(#linear-gradient)" filter="url(#drop-shadow-2)"/></g><g id="inner"><polyline points="114.22 473.42 118.73 469.62 144.69 469.62 149.38 473.42" fill="none" stroke="#74a7d1" stroke-miterlimit="10"/><polygon points="114.56 473.42 101.5 473.42 93.95 484.33 108.7 484.33 116.44 473.42 114.56 473.42" fill="#74a7d1"/><polygon points="151.27 473.42 162.45 473.42 169.99 484.33 155.25 484.33 147.51 473.42 151.27 473.42" fill="#74a7d1"/><polyline points="98.65 477.53 96.44 477.51 27.54 477.91 16.08 470.25 16.41 23.43 24.32 14.5 61.37 14.5 76.02 24.85 128.43 24.85 135.04 24.85 187.94 24.85 202.58 14.5 239.64 14.5 247.55 23.43 247.22 470.25 235.75 477.91 169.99 477.52 165.33 477.59" fill="none" stroke="#74a7d1" stroke-miterlimit="10"/></g></svg>