<?xml version="1.0" encoding="UTF-8"?><svg id="projects" xmlns="http://www.w3.org/2000/svg" xmlns:xlink="http://www.w3.org/1999/xlink" viewBox="0 0 283.07 107.33"><defs><radialGradient id="radial-gradient" cx="136.73" cy="39.91" fx="136.73" fy="39.91" r="245.72" gradientTransform="translate(-52.6 22.86) scale(1.42 .77)" gradientUnits="userSpaceOnUse"><stop offset=".31" stop-color="#0a0a55"/><stop offset=".58" stop-color="#2599cd"/><stop offset=".77" stop-color="#2797cc"/><stop offset=".92" stop-color="#4775bc"/></radialGradient></defs><g id="projects-2"><polygon points="42.94 .5 .5 28.49 .5 76.37 35.1 106.83 251.2 106.83 282.57 76.37 282.57 27.18 251.2 .5 42.94 .5" fill="url(#radial-gradient)" stroke="#2599cd" stroke-miterlimit="10"/><g id="projects-3"><path d="M80.89,65.48v-20.13h16.49c.67,0,1.29.17,1.85.5.56.34,1,.78,1.33,1.33.33.55.49,1.15.49,1.81v5.66c0,.67-.16,1.28-.49,1.83-.33.55-.77.99-1.33,1.32-.56.33-1.18.49-1.85.49l-13.47.03v7.17h-3.02ZM84.62,55.23h12.71c.19,0,.35-.06.48-.2s.2-.29.2-.48v-5.49c0-.19-.07-.35-.2-.49-.13-.14-.29-.21-.48-.21h-12.71c-.19,0-.35.07-.49.21-.14.14-.21.3-.21.49v5.49c0,.19.07.35.21.48.14.13.3.2.49.2Z" fill="#fff"/><path d="M102.93,65.48v-12.6c0-.65.17-1.25.5-1.81s.78-.99,1.33-1.33c.55-.34,1.15-.5,1.81-.5h9.07v3.02h-8.99c-.19,0-.35.07-.49.21-.14.14-.21.3-.21.49v12.52h-3.02Z" fill="#fff"/><path d="M119.18,64.97c-.55-.34-.99-.78-1.33-1.33-.34-.55-.5-1.15-.5-1.81v-8.96c0-.65.17-1.25.5-1.81s.78-.99,1.33-1.33c.55-.34,1.15-.5,1.81-.5h9.24c.67,0,1.28.17,1.83.5.55.34.99.78,1.32,1.33.33.55.49,1.15.49,1.81v8.96c0,.65-.16,1.26-.49,1.81-.33.55-.77.99-1.32,1.33-.55.34-1.16.5-1.83.5h-9.24c-.65,0-1.26-.17-1.81-.5ZM121.07,62.45h9.07c.19,0,.35-.07.48-.21.13-.14.2-.3.2-.49v-8.79c0-.19-.07-.35-.2-.49-.13-.14-.29-.21-.48-.21h-9.07c-.19,0-.35.07-.49.21-.14.14-.21.3-.21.49v8.79c0,.19.07.35.21.49s.3.21.49.21Z" fill="#fff"/><path d="M130.06,71.92v-3.05h6.86c.19,0,.35-.07.49-.2.14-.13.21-.29.21-.48v-18.96h3.02v19.04c0,.67-.16,1.28-.49,1.83s-.77.99-1.32,1.32c-.55.33-1.16.49-1.83.49h-6.94ZM137.62,46.94v-3.02h3.02v3.02h-3.02Z" fill="#fff"/><path d="M144.89,64.97c-.55-.34-.99-.78-1.33-1.33-.34-.55-.5-1.15-.5-1.81v-8.96c0-.65.17-1.25.5-1.81s.78-.99,1.33-1.33c.55-.34,1.15-.5,1.81-.5h9.24c.67,0,1.28.17,1.83.5.55.34.99.78,1.32,1.33.33.55.49,1.15.49,1.81v5.99h-13.5v2.88c0,.19.07.35.21.49s.3.21.49.21h12.8v3.02h-12.88c-.65,0-1.26-.17-1.81-.5ZM146.08,56.04h10.44v-3.08c0-.19-.07-.35-.2-.49-.13-.14-.29-.21-.48-.21h-9.07c-.19,0-.35.07-.49.21-.14.14-.21.3-.21.49v3.08Z" fill="#fff"/><path d="M163.65,64.97c-.55-.34-.99-.78-1.33-1.33-.34-.55-.5-1.15-.5-1.81v-8.96c0-.65.17-1.25.5-1.81s.78-.99,1.33-1.33c.55-.34,1.15-.5,1.81-.5h12.82v3.02h-12.74c-.19,0-.35.07-.49.21-.14.14-.21.3-.21.49v8.79c0,.19.07.35.21.49s.3.21.49.21h12.8v3.02h-12.88c-.65,0-1.26-.17-1.81-.5Z" fill="#fff"/><path d="M182.41,64.97c-.55-.34-.99-.78-1.32-1.33-.33-.55-.49-1.15-.49-1.81v-17.72h3.02v5.12h6.66v3.02h-6.66v9.49c0,.19.07.35.21.49.14.14.3.21.49.21h5.96v3.02h-6.05c-.67,0-1.28-.17-1.83-.5Z" fill="#fff"/><path d="M194.31,64.97c-.55-.34-.99-.78-1.33-1.33-.34-.55-.5-1.15-.5-1.81v-.42h3.02v.34c0,.19.07.35.21.49s.3.21.49.21h9.07c.19,0,.35-.07.48-.21.13-.14.2-.3.2-.49v-2.18c0-.19-.07-.35-.2-.49-.13-.14-.29-.21-.48-.21h-9.16c-.65,0-1.26-.16-1.81-.49-.55-.33-.99-.77-1.33-1.32-.34-.55-.5-1.16-.5-1.83v-2.35c0-.65.17-1.25.5-1.81s.78-.99,1.33-1.33c.55-.34,1.15-.5,1.81-.5h9.24c.67,0,1.28.17,1.83.5.55.34.99.78,1.32,1.33.33.55.49,1.15.49,1.81v.42h-3.05v-.34c0-.19-.07-.35-.2-.49-.13-.14-.29-.21-.48-.21h-9.07c-.19,0-.35.07-.49.21-.14.14-.21.3-.21.49v2.18c0,.19.07.35.21.49s.3.21.49.21h9.16c.67,0,1.28.16,1.83.49.55.33.99.77,1.32,1.32.33.55.49,1.16.49,1.83v2.35c0,.65-.16,1.26-.49,1.81-.33.55-.77.99-1.32,1.33-.55.34-1.16.5-1.83.5h-9.24c-.65,0-1.26-.17-1.81-.5Z" fill="#fff"/></g></g></svg>